<svg xmlns="http://www.w3.org/2000/svg" version="1.1" xmlns:xlink="http://www.w3.org/1999/xlink" width="1000" height="1000"><metadata><rdf:RDF xmlns:rdf="http://www.w3.org/1999/02/22-rdf-syntax-ns#" xmlns:dc="http://purl.org/dc/elements/1.1/"><rdf:Description><dc:creator>RealFaviconGenerator</dc:creator><dc:source>https://realfavicongenerator.net</dc:source></rdf:Description></rdf:RDF></metadata><style>
    #light-icon {
      display: inline;
    }
    #dark-icon {
      display: none;
    }

    @media (prefers-color-scheme: dark) {
      #light-icon {
        display: none;
      }
      #dark-icon {
        display: inline;
      }
    }
  </style><g id="light-icon"><svg xmlns="http://www.w3.org/2000/svg" version="1.1" xmlns:xlink="http://www.w3.org/1999/xlink" width="1000" height="1000"><g><g transform="matrix(11.235955056179776,0,0,11.235955056179776,-5.684341886080802e-14,230.33707865168537)"><svg xmlns="http://www.w3.org/2000/svg" width="89" height="48" viewBox="0 0 89 48" fill="none"><path d="M16.768 34.208L2.432 27.456V23.456L16.768 16.704V20.384L7.488 24.672C7.06133 24.864 6.63467 25.0347 6.208 25.184C5.80267 25.312 5.48267 25.3973 5.248 25.44C5.48267 25.4827 5.81333 25.568 6.24 25.696C6.66667 25.824 7.08267 25.984 7.488 26.176L16.768 30.464V34.208ZM55.8825 39.52L67.0825 9.44H71.2425L60.0425 39.52H55.8825Z" fill="#15C19F"></path><path d="M27.6515 36.32C26.0515 36.32 24.6648 36.0533 23.4915 35.52C22.3182 34.9867 21.4115 34.2293 20.7715 33.248C20.1528 32.2453 19.8328 31.072 19.8115 29.728H23.8115C23.8115 30.688 24.1528 31.4453 24.8355 32C25.5395 32.5333 26.4888 32.8 27.6835 32.8C28.8355 32.8 29.7315 32.5333 30.3715 32C31.0328 31.4667 31.3635 30.7307 31.3635 29.792C31.3635 29.0027 31.1288 28.32 30.6595 27.744C30.2115 27.1467 29.5608 26.7413 28.7075 26.528L26.0195 25.792C24.1848 25.3227 22.7662 24.48 21.7635 23.264C20.7822 22.048 20.2915 20.576 20.2915 18.848C20.2915 17.5253 20.5902 16.3733 21.1875 15.392C21.7848 14.4107 22.6275 13.6533 23.7155 13.12C24.8248 12.5867 26.1262 12.32 27.6195 12.32C29.8808 12.32 31.6728 12.9067 32.9955 14.08C34.3182 15.232 34.9902 16.7893 35.0115 18.752H31.0115C31.0115 17.8347 30.7128 17.12 30.1155 16.608C29.5182 16.0747 28.6755 15.808 27.5875 15.808C26.5422 15.808 25.7315 16.0533 25.1555 16.544C24.5795 17.0347 24.2915 17.728 24.2915 18.624C24.2915 19.4347 24.5048 20.128 24.9315 20.704C25.3795 21.2587 26.0195 21.6533 26.8515 21.888L29.6355 22.656C31.4915 23.1253 32.9102 23.968 33.8915 25.184C34.8728 26.3787 35.3635 27.8613 35.3635 29.632C35.3635 30.9547 35.0435 32.128 34.4035 33.152C33.7635 34.1547 32.8675 34.9333 31.7155 35.488C30.5635 36.0427 29.2088 36.32 27.6515 36.32ZM38.791 36V12.64H52.807V16.128H42.727V22.208H51.687V25.664H42.727V32.512H52.807V36H38.791Z" fill="#14181F"></path><path d="M71.432 34.208V30.528L80.712 26.24C81.1387 26.048 81.5547 25.888 81.96 25.76C82.3867 25.6107 82.7173 25.5147 82.952 25.472C82.7173 25.4293 82.3867 25.3547 81.96 25.248C81.5333 25.12 81.1173 24.96 80.712 24.768L71.432 20.448V16.704L85.768 23.456V27.456L71.432 34.208Z" fill="#15C19F"></path></svg></g></g></svg></g><g id="dark-icon"><svg xmlns="http://www.w3.org/2000/svg" version="1.1" xmlns:xlink="http://www.w3.org/1999/xlink" width="1000" height="1000"><g><g transform="matrix(11.235955056179776,0,0,11.235955056179776,-5.684341886080802e-14,230.33707865168537)"><svg xmlns="http://www.w3.org/2000/svg" width="89" height="48" viewBox="0 0 89 48" fill="none"><path d="M16.768 34.208L2.432 27.456V23.456L16.768 16.704V20.384L7.488 24.672C7.06133 24.864 6.63467 25.0347 6.208 25.184C5.80267 25.312 5.48267 25.3973 5.248 25.44C5.48267 25.4827 5.81333 25.568 6.24 25.696C6.66667 25.824 7.08267 25.984 7.488 26.176L16.768 30.464V34.208ZM55.8825 39.52L67.0825 9.44H71.2425L60.0425 39.52H55.8825Z" fill="#15C19F"></path><path d="M27.6515 36.32C26.0515 36.32 24.6648 36.0533 23.4915 35.52C22.3182 34.9867 21.4115 34.2293 20.7715 33.248C20.1528 32.2453 19.8328 31.072 19.8115 29.728H23.8115C23.8115 30.688 24.1528 31.4453 24.8355 32C25.5395 32.5333 26.4888 32.8 27.6835 32.8C28.8355 32.8 29.7315 32.5333 30.3715 32C31.0328 31.4667 31.3635 30.7307 31.3635 29.792C31.3635 29.0027 31.1288 28.32 30.6595 27.744C30.2115 27.1467 29.5608 26.7413 28.7075 26.528L26.0195 25.792C24.1848 25.3227 22.7662 24.48 21.7635 23.264C20.7822 22.048 20.2915 20.576 20.2915 18.848C20.2915 17.5253 20.5902 16.3733 21.1875 15.392C21.7848 14.4107 22.6275 13.6533 23.7155 13.12C24.8248 12.5867 26.1262 12.32 27.6195 12.32C29.8808 12.32 31.6728 12.9067 32.9955 14.08C34.3182 15.232 34.9902 16.7893 35.0115 18.752H31.0115C31.0115 17.8347 30.7128 17.12 30.1155 16.608C29.5182 16.0747 28.6755 15.808 27.5875 15.808C26.5422 15.808 25.7315 16.0533 25.1555 16.544C24.5795 17.0347 24.2915 17.728 24.2915 18.624C24.2915 19.4347 24.5048 20.128 24.9315 20.704C25.3795 21.2587 26.0195 21.6533 26.8515 21.888L29.6355 22.656C31.4915 23.1253 32.9102 23.968 33.8915 25.184C34.8728 26.3787 35.3635 27.8613 35.3635 29.632C35.3635 30.9547 35.0435 32.128 34.4035 33.152C33.7635 34.1547 32.8675 34.9333 31.7155 35.488C30.5635 36.0427 29.2088 36.32 27.6515 36.32ZM38.791 36V12.64H52.807V16.128H42.727V22.208H51.687V25.664H42.727V32.512H52.807V36H38.791Z" fill="#E8EAED"></path><path d="M71.432 34.208V30.528L80.712 26.24C81.1387 26.048 81.5547 25.888 81.96 25.76C82.3867 25.6107 82.7173 25.5147 82.952 25.472C82.7173 25.4293 82.3867 25.3547 81.96 25.248C81.5333 25.12 81.1173 24.96 80.712 24.768L71.432 20.448V16.704L85.768 23.456V27.456L71.432 34.208Z" fill="#15C19F"></path></svg></g></g></svg></g></svg>